# Blender v2.92.0 OBJ File: 'CharacterPosed.blend'
# www.blender.org
mtllib Accessoires_Basic.mtl
o Accessoires_Basic_Plane.004
v -0.086974 1.112027 0.021090
v -0.079136 1.144048 0.016613
v -0.049522 1.136955 -0.012893
v -0.055339 1.100072 -0.010089
v -0.011959 1.129986 -0.035308
v -0.017220 1.089338 -0.027343
v -0.104782 1.122319 0.057997
v -0.099484 1.150934 0.051402
v -0.108059 1.130010 0.095831
v -0.107204 1.157463 0.091447
v -0.097003 1.134674 0.132390
v -0.094329 1.161805 0.129425
v 0.022908 1.084790 -0.031677
v 0.025326 1.126588 -0.036240
v 0.057080 1.130577 -0.016339
v 0.056562 1.090117 -0.007891
v 0.047689 1.163107 0.166217
v -0.032140 1.163455 0.181590
v -0.031800 1.130760 0.180681
v 0.049070 1.136013 0.169691
v 0.081340 1.101553 0.025718
v 0.077985 1.138126 0.021702
v 0.089050 1.145729 0.061469
v 0.093998 1.114070 0.068038
v 0.090023 1.152937 0.101190
v 0.091964 1.124567 0.108746
v 0.077388 1.159367 0.139600
v 0.076498 1.132012 0.143368
v -0.078566 1.111064 0.027607
v -0.049259 1.100135 -0.001646
v -0.043477 1.137008 -0.004453
v -0.071017 1.143196 0.023112
v -0.014489 1.090679 -0.017751
v -0.009226 1.131284 -0.025465
v -0.094691 1.121205 0.061504
v -0.089748 1.149931 0.054993
v -0.097473 1.128889 0.095195
v -0.096870 1.156443 0.090803
v -0.088241 1.133681 0.126626
v -0.085779 1.160884 0.123617
v 0.020210 1.086639 -0.022172
v 0.048946 1.091467 -0.001686
v 0.049496 1.131822 -0.009529
v 0.022535 1.128436 -0.026528
v 0.043299 1.162091 0.156903
v 0.044868 1.134945 0.160195
v -0.028880 1.129980 0.170648
v -0.029465 1.162737 0.171629
v 0.071985 1.101658 0.028931
v 0.084099 1.113111 0.068627
v 0.078948 1.144757 0.062751
v 0.068516 1.138102 0.025563
v 0.082221 1.123385 0.106252
v 0.079988 1.151766 0.099331
v 0.068277 1.130779 0.137303
v 0.068901 1.158176 0.133861
v 0.016978 1.073418 -0.031946
v 0.016444 1.081145 -0.031794
v 0.021161 1.083501 -0.039064
v 0.022173 1.074150 -0.040332
v 0.042811 1.091565 -0.031279
v 0.048318 1.074343 -0.028419
v 0.048188 1.073648 -0.017725
v 0.042288 1.090771 -0.018213
v 0.034964 1.088885 -0.012276
v 0.040275 1.072906 -0.010742
v 0.013314 1.080821 -0.023653
v 0.014128 1.072713 -0.022656
v 0.013680 1.095980 -0.040084
v 0.028176 1.106827 -0.034459
v 0.026626 1.107458 -0.023706
v 0.001626 1.109914 -0.039492
v 0.001061 1.110577 -0.037910
v 0.006136 1.093921 -0.028563
v 0.011316 1.094537 -0.033998
v 0.020633 1.104769 -0.019346
v -0.000263 1.105487 -0.039590
v -0.001238 1.104829 -0.038324
v -0.000128 1.109094 -0.036916
v 0.000517 1.105649 -0.040899
v 0.021854 1.064664 -0.040281
v 0.017012 1.065716 -0.032790
v 0.044091 1.056814 -0.029930
v 0.036141 1.056912 -0.014339
v 0.043555 1.056345 -0.020435
v 0.030598 1.041055 -0.035112
v 0.015303 1.051906 -0.042929
v 0.029131 1.039399 -0.028098
v 0.003797 1.036265 -0.042705
v 0.004304 1.037167 -0.044187
v 0.012868 1.052379 -0.036719
v 0.007682 1.051911 -0.031274
v 0.013904 1.064762 -0.024689
v 0.022977 1.041060 -0.023457
v 0.002507 1.037518 -0.041536
v 0.001081 1.041835 -0.042389
v 0.002095 1.041418 -0.043724
v 0.002879 1.041484 -0.045039
vt 0.614906 0.055616
vt 0.618950 0.045284
vt 0.631988 0.048852
vt 0.629347 0.061029
vt 0.645845 0.051922
vt 0.643758 0.065487
vt 0.601805 0.050031
vt 0.606550 0.041355
vt 0.589864 0.043910
vt 0.594581 0.036207
vt 0.578648 0.036594
vt 0.583854 0.029459
vt 0.658163 0.067238
vt 0.658162 0.053339
vt 0.670480 0.051922
vt 0.672569 0.065486
vt 0.732472 0.029455
vt 0.752515 0.011528
vt 0.759602 0.019827
vt 0.737676 0.036591
vt 0.686979 0.061027
vt 0.684337 0.048850
vt 0.697374 0.045281
vt 0.701420 0.055613
vt 0.709775 0.041352
vt 0.714520 0.050027
vt 0.721744 0.036204
vt 0.726461 0.043906
vt 0.563726 0.011433
vt 0.556730 0.019811
vt 0.621938 0.032221
vt 0.634872 0.034087
vt 0.632657 0.045589
vt 0.619872 0.042205
vt 0.646997 0.034676
vt 0.646348 0.048618
vt 0.610497 0.029325
vt 0.607792 0.038302
vt 0.600416 0.025257
vt 0.596115 0.033338
vt 0.591442 0.019726
vt 0.585977 0.026691
vt 0.658162 0.034533
vt 0.669327 0.034675
vt 0.669976 0.048617
vt 0.658162 0.049498
vt 0.730348 0.026688
vt 0.724886 0.019723
vt 0.741904 0.002277
vt 0.749053 0.010066
vt 0.681452 0.034085
vt 0.694386 0.032218
vt 0.696452 0.042202
vt 0.683667 0.045587
vt 0.705826 0.029322
vt 0.708532 0.038298
vt 0.715908 0.025252
vt 0.720210 0.033334
vt 0.567193 0.009980
vt 0.574424 0.002266
vt 0.951752 0.005717
vt 0.965512 0.001581
vt 0.965970 0.004974
vt 0.953348 0.008747
vt 0.979106 0.002148
vt 0.977739 0.005287
vt 0.939367 0.014717
vt 0.941778 0.017148
vt 0.931289 0.026227
vt 0.934344 0.027772
vt 0.928109 0.038732
vt 0.931524 0.038987
vt 0.929850 0.051446
vt 0.932936 0.049961
vt 0.948732 0.070617
vt 0.950111 0.067483
vt 0.988782 0.011713
vt 0.995128 0.024604
vt 0.991823 0.025500
vt 0.985986 0.013690
vt 0.996977 0.039802
vt 0.993555 0.039693
vt 0.994053 0.053557
vt 0.990841 0.052372
vt 0.987065 0.064404
vt 0.984553 0.062077
vt 0.976572 0.071790
vt 0.975554 0.068521
vt 0.949674 0.071033
vt 0.951035 0.067892
vt 0.216817 0.016290
vt 0.216966 0.013563
vt 0.220176 0.012980
vt 0.220302 0.016407
vt 0.228687 0.010780
vt 0.230502 0.016407
vt 0.016528 0.002210
vt 0.022059 0.004879
vt 0.020733 0.007667
vt 0.015505 0.005647
vt 0.018531 0.016255
vt 0.015540 0.015873
vt 0.218809 0.007877
vt 0.224968 0.005873
vt 0.226496 0.004163
vt 0.217905 0.002382
vt 0.217924 0.001748
vt 0.231493 0.009685
vt 0.018246 0.019506
vt 0.024051 0.017866
vt 0.023532 0.020555
vt 0.025822 0.011888
vt 0.029869 0.018561
vt 0.028690 0.019983
vt 0.028323 0.019530
vt 0.029173 0.018660
vt 0.217029 0.003284
vt 0.216713 0.008490
vt 0.216471 0.003058
vt 0.027519 0.010131
vt 0.233909 0.015260
vt 0.015517 0.019345
vt 0.237267 0.001683
vt 0.240751 0.001566
vt 0.240626 0.004992
vt 0.237416 0.004410
vt 0.250952 0.001566
vt 0.249137 0.007193
vt 0.026920 0.002597
vt 0.030357 0.001574
vt 0.032377 0.006802
vt 0.029588 0.008128
vt 0.245418 0.012100
vt 0.239258 0.010096
vt 0.246945 0.013810
vt 0.238373 0.016225
vt 0.238355 0.015591
vt 0.251943 0.008288
vt 0.044216 0.004315
vt 0.045265 0.009602
vt 0.042576 0.010120
vt 0.040965 0.004600
vt 0.036598 0.011891
vt 0.043271 0.015938
vt 0.043369 0.015242
vt 0.044240 0.014393
vt 0.044692 0.014759
vt 0.237479 0.014689
vt 0.236921 0.014915
vt 0.237162 0.009483
vt 0.034840 0.013588
vt 0.254359 0.002712
vt 0.040583 0.001609
vt 0.044055 0.001586
vt 0.047733 0.004763
vt 0.058912 0.004763
vt 0.057507 0.007912
vt 0.048141 0.007912
vt 0.048142 0.001565
vt 0.057507 0.001565
vn -0.7292 -0.5925 -0.3423
vn -0.4691 0.7193 -0.5124
vn -0.3464 0.6686 -0.6580
vn -0.5714 -0.6526 -0.4976
vn -0.1501 0.5622 -0.8133
vn -0.3061 -0.7501 -0.5863
vn -0.8099 -0.5757 -0.1121
vn -0.6019 0.7254 -0.3339
vn -0.8007 -0.5750 0.1681
vn -0.6962 0.7166 -0.0415
vn -0.6736 -0.5517 0.4919
vn -0.5950 0.7174 0.3625
vn 0.1664 -0.7664 -0.6205
vn 0.2253 0.4997 -0.8364
vn 0.5331 0.5614 -0.6330
vn 0.5601 -0.7539 -0.3434
vn 0.3309 0.7205 0.6093
vn -0.1892 0.6724 0.7156
vn -0.1966 -0.6013 0.7744
vn 0.3588 -0.5513 0.7532
vn 0.7399 -0.6579 -0.1405
vn 0.6186 0.6719 -0.4073
vn 0.6500 0.7251 -0.2275
vn 0.8029 -0.5933 0.0570
vn 0.6804 0.7328 -0.0047
vn 0.7668 -0.5725 0.2905
vn 0.6184 0.7241 0.3055
vn 0.6250 -0.5716 0.5316
vn 0.3654 -0.7694 0.5239
vn 0.2382 -0.7206 0.6512
vn 0.4981 0.7253 0.4753
vn 0.6524 0.6726 0.3492
vn 0.0836 -0.6671 0.7403
vn 0.2573 0.8229 0.5067
vn 0.5049 -0.7849 0.3593
vn 0.7286 0.6727 0.1287
vn 0.5991 -0.7957 0.0896
vn 0.6961 0.7014 -0.1530
vn 0.4750 -0.8329 -0.2840
vn 0.5429 0.7182 -0.4352
vn -0.1711 -0.6990 0.6944
vn -0.4302 -0.6554 0.6208
vn -0.4822 0.8210 0.3057
vn -0.1346 0.8681 0.4777
vn -0.2735 0.7139 -0.6447
vn -0.2683 -0.8349 -0.4806
vn 0.1406 -0.8468 -0.5130
vn 0.1497 0.7777 -0.6105
vn -0.5263 -0.7087 0.4698
vn -0.5697 -0.7676 0.2936
vn -0.7519 0.6592 -0.0131
vn -0.6764 0.7173 0.1671
vn -0.6072 -0.7909 0.0767
vn -0.7110 0.6597 -0.2434
vn -0.5564 -0.8031 -0.2130
vn -0.5432 0.6928 -0.4743
vn -0.8035 -0.4228 -0.4190
vn -0.8399 -0.2528 -0.4802
vn -0.2310 -0.0935 -0.9684
vn -0.2272 -0.3834 -0.8952
vn 0.7592 0.3964 -0.5163
vn 0.8192 -0.3740 -0.4348
vn 0.8378 -0.4050 0.3661
vn 0.7429 0.5002 0.4449
vn 0.0634 0.2778 0.9585
vn 0.1995 -0.4312 0.8799
vn -0.8966 -0.1820 0.4036
vn -0.8203 -0.3994 0.4094
vn -0.2023 -0.2367 -0.9503
vn 0.4687 0.6938 -0.5468
vn 0.3454 0.8703 0.3511
vn -0.2693 0.6972 -0.6643
vn -0.3834 0.9226 -0.0430
vn -0.8843 -0.3639 0.2926
vn -0.6357 -0.5944 -0.4925
vn -0.2332 0.5201 0.8216
vn -0.8104 -0.1945 -0.5526
vn -0.9708 -0.2296 -0.0693
vn -0.7778 0.5767 0.2497
vn -0.4920 -0.1175 -0.8626
vn -0.2229 -0.2928 -0.9298
vn -0.1956 0.1269 -0.9724
vn -0.8584 0.2502 -0.4478
vn 0.8209 -0.3287 -0.4669
vn 0.8084 -0.3296 -0.4876
vn 0.8355 -0.4082 0.3678
vn 0.0880 -0.3931 0.9153
vn 0.7770 -0.4956 0.3882
vn 0.5581 -0.6089 -0.5637
vn -0.1579 0.2996 -0.9409
vn 0.4044 -0.8833 0.2371
vn -0.3096 -0.9348 -0.1739
vn -0.1744 -0.6360 -0.7517
vn -0.6798 0.6046 -0.4151
vn -0.9072 0.2576 0.3327
vn -0.9056 0.0625 0.4194
vn -0.1907 -0.6369 0.7470
vn -0.7325 -0.6593 0.1698
vn -0.9853 0.1650 -0.0438
vn -0.8251 0.2038 -0.5269
vn -0.4736 0.1563 -0.8668
usemtl Accessoires
s 1
f 1/1/1 2/2/2 3/3/3 4/4/4
f 4/4/4 3/3/3 5/5/5 6/6/6
f 7/7/7 8/8/8 2/2/2 1/1/1
f 9/9/9 10/10/10 8/8/8 7/7/7
f 11/11/11 12/12/12 10/10/10 9/9/9
f 13/13/13 14/14/14 15/15/15 16/16/16
f 17/17/17 18/18/18 19/19/19 20/20/20
f 6/6/6 5/5/5 14/14/14 13/13/13
f 21/21/21 22/22/22 23/23/23 24/24/24
f 16/16/16 15/15/15 22/22/22 21/21/21
f 24/24/24 23/23/23 25/25/25 26/26/26
f 26/26/26 25/25/25 27/27/27 28/28/28
f 28/28/28 27/27/27 17/17/17 20/20/20
f 18/29/18 12/12/12 11/11/11 19/30/19
f 29/31/29 30/32/30 31/33/31 32/34/32
f 30/32/30 33/35/33 34/36/34 31/33/31
f 35/37/35 29/31/29 32/34/32 36/38/36
f 37/39/37 35/37/35 36/38/36 38/40/38
f 39/41/39 37/39/37 38/40/38 40/42/40
f 41/43/41 42/44/42 43/45/43 44/46/44
f 45/47/45 46/48/46 47/49/47 48/50/48
f 33/35/33 41/43/41 44/46/44 34/36/34
f 49/51/49 50/52/50 51/53/51 52/54/52
f 42/44/42 49/51/49 52/54/52 43/45/43
f 50/52/50 53/55/53 54/56/54 51/53/51
f 53/55/53 55/57/55 56/58/56 54/56/54
f 55/57/55 46/48/46 45/47/45 56/58/56
f 48/59/48 47/60/47 39/41/39 40/42/40
f 4/61/4 6/62/6 33/63/33 30/64/30
f 6/62/6 13/65/13 41/66/41 33/63/33
f 1/67/1 4/61/4 30/64/30 29/68/29
f 7/69/7 1/67/1 29/68/29 35/70/35
f 9/71/9 7/69/7 35/70/35 37/72/37
f 11/73/11 9/71/9 37/72/37 39/74/39
f 14/14/14 5/5/5 34/36/34 44/46/44
f 5/5/5 3/3/3 31/33/31 34/36/34
f 3/3/3 2/2/2 32/34/32 31/33/31
f 2/2/2 8/8/8 36/38/36 32/34/32
f 8/8/8 10/10/10 38/40/38 36/38/36
f 10/10/10 12/12/12 40/42/40 38/40/38
f 19/75/19 11/73/11 39/74/39 47/76/47
f 12/12/12 18/29/18 48/59/48 40/42/40
f 16/77/16 21/78/21 49/79/49 42/80/42
f 13/65/13 16/77/16 42/80/42 41/66/41
f 21/78/21 24/81/24 50/82/50 49/79/49
f 24/81/24 26/83/26 53/84/53 50/82/50
f 26/83/26 28/85/28 55/86/55 53/84/53
f 28/85/28 20/87/20 46/88/46 55/86/55
f 15/15/15 14/14/14 44/46/44 43/45/43
f 22/22/22 15/15/15 43/45/43 52/54/52
f 23/23/23 22/22/22 52/54/52 51/53/51
f 25/25/25 23/23/23 51/53/51 54/56/54
f 27/27/27 25/25/25 54/56/54 56/58/56
f 17/17/17 27/27/27 56/58/56 45/47/45
f 20/87/20 19/89/19 47/90/47 46/88/46
f 18/18/18 17/17/17 45/47/45 48/50/48
f 57/91/57 58/92/58 59/93/59 60/94/60
f 60/94/60 59/93/59 61/95/61 62/96/62
f 63/97/63 64/98/64 65/99/65 66/100/66
f 66/100/66 65/99/65 67/101/67 68/102/68
f 61/95/61 59/93/59 69/103/69 70/104/70
f 71/105/71 70/104/70 72/106/72 73/107/73
f 64/108/64 61/95/61 70/104/70 71/105/71
f 58/109/58 67/101/67 74/110/74 75/111/75
f 67/101/67 65/99/65 76/112/76 74/110/74
f 73/113/73 77/114/77 78/115/78 79/116/79
f 75/111/75 74/110/74 78/115/78 77/114/77
f 74/110/74 76/112/76 79/116/79 78/115/78
f 70/104/70 69/103/69 80/117/80 72/106/72
f 69/103/69 75/118/75 77/119/77 80/117/80
f 72/106/72 80/117/80 77/119/77 73/107/73
f 59/93/59 58/92/58 75/118/75 69/103/69
f 65/99/65 64/98/64 71/120/71 76/112/76
f 76/112/76 71/120/71 73/113/73 79/116/79
f 62/96/62 61/95/61 64/108/64 63/121/63
f 68/102/68 67/101/67 58/109/58 57/122/57
f 57/123/57 60/124/81 81/125/82 82/126/83
f 60/124/81 62/127/84 83/128/85 81/125/82
f 63/129/86 66/130/66 84/131/87 85/132/88
f 83/128/85 86/133/89 87/134/90 81/125/82
f 88/135/91 89/136/92 90/137/93 86/133/89
f 85/138/88 88/135/91 86/133/89 83/128/85
f 82/139/83 91/140/94 92/141/95 93/142/96
f 93/142/96 92/141/95 94/143/97 84/131/87
f 89/144/92 95/145/98 96/146/99 97/147/100
f 91/140/94 97/147/100 96/146/99 92/141/95
f 92/141/95 96/146/99 95/145/98 94/143/97
f 86/133/89 90/137/93 98/148/101 87/134/90
f 87/134/90 98/148/101 97/149/100 91/150/94
f 90/137/93 89/136/92 97/149/100 98/148/101
f 81/125/82 87/134/90 91/150/94 82/126/83
f 84/131/87 94/143/97 88/151/91 85/132/88
f 94/143/97 95/145/98 89/144/92 88/151/91
f 62/127/84 63/152/86 85/138/88 83/128/85
f 66/130/66 68/153/68 93/142/96 84/131/87
f 68/153/68 57/154/57 82/139/83 93/142/96
f 57/155/57 63/156/86 66/157/66 68/158/68
f 60/159/81 62/160/84 63/156/86 57/155/57
